<svg width="19.31" height="20" version="1.1" xmlns="http://www.w3.org/2000/svg">
 <path d="m18.99 19.71c-0.196 0.19-0.456 0.294-0.73 0.294-0.289 0-0.558-0.115-0.759-0.323l-4.796-4.988c-1.361 0.957-2.955 1.461-4.626 1.461-4.453 0-8.075-3.623-8.075-8.075 0-4.453 3.622-8.075 8.075-8.075 4.452 0 8.075 3.622 8.075 8.075 0 1.906-0.671 3.736-1.895 5.191l4.76 4.951c0.403 0.419 0.39 1.086-0.029 1.489zm-10.91-17.6c-3.291 0-5.968 2.678-5.968 5.969s2.677 5.968 5.968 5.968 5.969-2.677 5.969-5.968-2.678-5.969-5.969-5.969z"/>
</svg>
