<svg width="30" height="26.45" version="1.1" xmlns="http://www.w3.org/2000/svg">
 <path d="m10.26 3.042e-4c-0.1845 0.003797-0.3732 0.04234-0.5547 0.1211-2.057 0.871-3.824 2.01-5.227 3.389-1.718 1.621-2.88 3.486-3.51 5.543-0.629 2.082-0.9668 4.912-0.9668 8.518v7.432c0 0.798 0.6522 1.451 1.451 1.451h9.512c0.798 0 1.451-0.6532 1.451-1.451v-9.512c0-0.799-0.6532-1.453-1.451-1.453h-4.551c0.048-2.445 0.6303-4.404 1.695-5.881 0.872-1.185 2.178-2.152 3.945-2.902 0.75-0.315 1.064-1.212 0.7246-1.938l-1.186-2.492c-0.2542-0.5265-0.7803-0.8356-1.334-0.8242zm17.09 0.02539c-0.1845 0.00375-0.3712 0.04259-0.5527 0.1211-2.034 0.872-3.775 2.008-5.203 3.363-1.719 1.646-2.904 3.509-3.533 5.566-0.63 2.033-0.9453 4.864-0.9453 8.494v7.432c0 0.799 0.6551 1.451 1.453 1.451h9.51c0.799 0 1.453-0.6522 1.453-1.451v-9.512c0-0.799-0.6541-1.453-1.453-1.453h-4.574c0.049-2.445 0.6303-4.405 1.695-5.881 0.871-1.186 2.179-2.152 3.945-2.902 0.75-0.315 1.063-1.212 0.7246-1.938l-1.186-2.469c-0.2542-0.5265-0.7806-0.8335-1.334-0.8223z"/>
</svg>
