<svg width="182" height="37.64" version="1.1" xmlns="http://www.w3.org/2000/svg" viewBox="0 0 182 37.64">
 <path d="m168.1 1.663c-1.409 0-2.434 0.2996-3.074 0.8988-0.64 0.5992-0.9601 1.549-0.9601 2.85v0.8375l-1.716 0.8375v1.501h1.716v9.08h3.115v-9.08h2.696v-2.339h-2.696v-0.7149c0-0.4085 0.0987-0.7422 0.2962-1.001 0.1975-0.2655 0.5175-0.3983 0.9601-0.3983 0.5311 0 1.11 0.09873 1.736 0.2962l0.7966-2.288c-0.8375-0.32-1.794-0.48-2.87-0.48zm-125.5 0.1123v15.89h2.38l0.5209-1.256h0.2145c0.7626 0.9737 1.815 1.461 3.156 1.461 1.355 0 2.424-0.5175 3.207-1.552 0.7898-1.035 1.185-2.495 1.185-4.382 1e-6 -1.832-0.3813-3.272-1.144-4.32-0.7626-1.055-1.818-1.583-3.166-1.583-1.43 0-2.509 0.5651-3.238 1.695h-0.1226c0.08171-1.035 0.1226-1.787 0.1226-2.257v-3.697zm57.07 0v15.89h3.115v-3.554l1.338-1.072 3.289 4.627h3.595l-4.811-6.465 4.535-4.954h-3.513l-3.197 3.473-1.358 1.736h-0.0409l0.1634-2.594v-7.088zm45.36 0c-1.13 0-1.695 0.5073-1.695 1.522 0 1.021 0.5652 1.532 1.695 1.532 0.5651 0 0.9873-0.1328 1.266-0.3983 0.286-0.2724 0.429-0.6503 0.429-1.134 0-1.015-0.5651-1.522-1.695-1.522zm-75.11 2.043-0.8988 2.41-1.716 1.042v1.318h1.491v5.505c0 1.26 0.2826 2.206 0.8477 2.839 0.572 0.6264 1.481 0.9396 2.727 0.9396 1.13 1e-6 2.084-0.1736 2.86-0.5209v-2.318c-0.7626 0.2383-1.416 0.3575-1.961 0.3575-0.4085 0-0.7388-0.1055-0.9907-0.3166-0.2451-0.2111-0.3677-0.5379-0.3677-0.9805v-5.505h3.197v-2.339h-3.197v-2.431zm-9.407 2.196c-1.6 0-3.057 0.3439-4.371 1.032l1.032 2.104c1.232-0.5515 2.305-0.8273 3.217-0.8273 1.185 0 1.777 0.5788 1.777 1.736v0.5005l-1.981 0.06128c-1.709 0.06128-2.989 0.3813-3.84 0.9601-0.8443 0.572-1.266 1.464-1.266 2.676 0 1.158 0.3132 2.049 0.9396 2.676 0.6332 0.6264 1.498 0.9396 2.594 0.9396 0.892 0 1.614-0.126 2.165-0.3779 0.5583-0.2587 1.1-0.7183 1.624-1.379h0.08171l0.6026 1.552h2.175v-7.609c0-1.362-0.4085-2.376-1.226-3.044-0.8171-0.6673-1.992-1.001-3.524-1.001zm31.21 0c-1.6 0-3.057 0.3439-4.371 1.032l1.032 2.104c1.232-0.5515 2.305-0.8273 3.217-0.8273 1.185 0 1.777 0.5788 1.777 1.736v0.5005l-1.981 0.06128c-1.709 0.06128-2.989 0.3813-3.84 0.9601-0.8443 0.572-1.266 1.464-1.266 2.676 0 1.158 0.3132 2.049 0.9396 2.676 0.6332 0.6264 1.498 0.9396 2.594 0.9396 0.892 0 1.614-0.126 2.165-0.3779 0.5583-0.2587 1.1-0.7183 1.624-1.379h0.08171l0.6026 1.552h2.175v-7.609c0-1.362-0.4085-2.376-1.226-3.044-0.8171-0.6673-1.992-1.001-3.524-1.001zm-7.823 0.02043c-0.7081 0-1.365 0.1975-1.971 0.5924-0.5992 0.3881-1.076 0.9022-1.43 1.542h-0.1532l-0.4596-1.92h-2.359v11.42h3.115v-5.811c0-0.9192 0.2758-1.634 0.8273-2.145 0.5583-0.5107 1.335-0.766 2.329-0.766 0.3609 0 0.6673 0.03404 0.9192 0.1021l0.2349-2.921c-0.2792-0.06128-0.6298-0.09192-1.052-0.09192zm33.63 0c-1.764 0-3.132 0.5175-4.106 1.552-0.9737 1.035-1.461 2.485-1.461 4.351 0 1.198 0.2247 2.247 0.6741 3.146 0.4494 0.8988 1.093 1.59 1.93 2.073 0.8375 0.4766 1.804 0.7149 2.901 0.7149 1.75 0 3.115-0.5243 4.096-1.573 0.9805-1.049 1.471-2.502 1.471-4.361 0-1.198-0.2247-2.244-0.6741-3.136-0.4494-0.892-1.093-1.576-1.93-2.053s-1.804-0.7149-2.901-0.7149zm38.79 0c-0.7762 0-1.471 0.143-2.084 0.429-0.606 0.2792-1.083 0.6945-1.43 1.246h-0.1736l-0.4188-1.461h-2.38v11.42h3.115v-5.372c0-1.348 0.1941-2.312 0.5822-2.89 0.3881-0.5856 1.018-0.8784 1.889-0.8784 0.64 0 1.106 0.2077 1.399 0.623 0.2928 0.4085 0.4392 1.025 0.4392 1.849v6.669h3.115v-7.446c0-1.355-0.3438-2.39-1.032-3.105-0.6877-0.7217-1.695-1.083-3.023-1.083zm20.24 0c-1.764 0-3.132 0.5175-4.106 1.552-0.9737 1.035-1.461 2.485-1.461 4.351 0 1.198 0.2247 2.247 0.6741 3.146 0.4494 0.8988 1.093 1.59 1.93 2.073 0.8375 0.4766 1.804 0.7149 2.901 0.7149 1.75 0 3.115-0.5243 4.096-1.573 0.9805-1.049 1.471-2.502 1.471-4.361 0-1.198-0.2247-2.244-0.6741-3.136-0.4494-0.892-1.093-1.576-1.93-2.053-0.8375-0.4766-1.804-0.7149-2.901-0.7149zm-52.59 0.2145 4.351 11.42h3.197l4.351-11.42h-3.258l-2.196 6.506c-0.2724 0.9056-0.4256 1.685-0.4596 2.339h-0.0613c-0.0613-0.7354-0.2145-1.515-0.4596-2.339l-2.206-6.506zm19.49 0v11.42h3.115v-11.42zm-95.52 2.278c0.6605 0 1.181 0.2826 1.563 0.8477 0.3813 0.5583 0.572 1.399 0.572 2.523s-0.1907 1.981-0.572 2.574c-0.3745 0.5856-0.8818 0.8784-1.522 0.8784-0.7898 0-1.369-0.2655-1.736-0.7966-0.3609-0.5311-0.5413-1.409-0.5413-2.635v-0.337c0.01362-1.089 0.1975-1.869 0.5515-2.339 0.3541-0.4766 0.9158-0.7149 1.685-0.7149zm69.54 0.02043c0.8375 0 1.44 0.2826 1.808 0.8477 0.3677 0.5651 0.5515 1.413 0.5515 2.543 0 1.137-0.1838 1.995-0.5515 2.574-0.3609 0.572-0.9566 0.8579-1.787 0.8579-0.8375 0-1.444-0.2894-1.818-0.8681-0.3677-0.5788-0.5515-1.433-0.5515-2.564 0-1.137 0.1838-1.985 0.5515-2.543 0.3677-0.5651 0.9669-0.8477 1.798-0.8477zm59.03 0c0.8375 0 1.44 0.2826 1.808 0.8477 0.3677 0.5651 0.5515 1.413 0.5515 2.543 0 1.137-0.1838 1.995-0.5515 2.574-0.3609 0.572-0.9566 0.8579-1.787 0.8579-0.8375 0-1.444-0.2894-1.818-0.8681-0.3677-0.5788-0.5515-1.433-0.5515-2.564 0-1.137 0.1838-1.985 0.5515-2.543 0.3677-0.5651 0.9669-0.8477 1.798-0.8477zm-114.4 3.83v0.9396c0 0.6877-0.2179 1.239-0.6537 1.655-0.429 0.4153-1.004 0.623-1.726 0.623-1.008 0-1.512-0.4392-1.512-1.318 0-0.6128 0.2213-1.069 0.6639-1.369 0.4426-0.2996 1.117-0.463 2.022-0.4902zm31.21 0v0.9396c0 0.6877-0.2179 1.239-0.6537 1.655-0.429 0.4153-1.004 0.623-1.726 0.623-1.008 0-1.512-0.4392-1.512-1.318 0-0.6128 0.2213-1.069 0.6639-1.369 0.4426-0.2996 1.117-0.463 2.022-0.4902zm45.48 2.094c-0.5856 0-1.032 0.1464-1.338 0.4392-0.3064 0.2928-0.4596 0.7252-0.4596 1.297 0 0.5515 0.1566 0.9805 0.4698 1.287 0.3132 0.2996 0.7558 0.4494 1.328 0.4494 0.5583 0 0.9941-0.1532 1.307-0.4596 0.3132-0.3132 0.4698-0.7388 0.4698-1.277 0-0.5583-0.1566-0.9873-0.4698-1.287-0.3064-0.2996-0.7422-0.4494-1.307-0.4494z" fill="#2e3755"/>
 <path d="m155.5 26.57c-0.7806 0.1361-1.683 0.3128-2.707 0.5312-0.8236 0.179-1.425 0.6322-1.805 1.355-0.3796 0.7197-0.5703 1.723-0.5703 3.012 0 1.157 0.236 2.052 0.7051 2.686 0.4691 0.6338 1.116 0.9512 1.943 0.9512 0.8379 0 1.492-0.2578 1.961-0.7734 0.4691-0.5192 0.7031-1.238 0.7031-2.158 0-0.8307-0.2028-1.482-0.6074-1.951-0.4046-0.4691-0.9681-0.7031-1.691-0.7031-0.3831 0-0.7506 0.08594-1.102 0.2578-0.3509 0.1719-0.6374 0.4082-0.8594 0.709h-0.0645c0.0251-0.7591 0.168-1.358 0.4258-1.799 0.2614-0.4404 0.6507-0.7197 1.17-0.8379 0.5335-0.1217 1.422-0.2865 2.664-0.4941zm-38.55 0.1133c0.0358 0.5872 0.2054 1.01 0.5098 1.268 0.3044 0.2542 0.7887 0.3809 1.451 0.3809 0.6589 0 1.146-0.1315 1.465-0.3965 0.3187-0.2686 0.5-0.6862 0.543-1.252h-0.8438c-0.0394 0.3509-0.1471 0.6042-0.3262 0.7617-0.1754 0.1576-0.4476 0.2363-0.8164 0.2363-0.4046 0-0.6908-0.07194-0.8555-0.2188-0.1612-0.1468-0.2569-0.4069-0.2891-0.7793zm25.7 0.3379c-1.16 0-2.055 0.3532-2.686 1.059-0.6302 0.7018-0.9453 1.692-0.9453 2.971 0 1.289 0.3128 2.287 0.9394 2.996 0.6302 0.7054 1.523 1.059 2.68 1.059 1.132 0 2.015-0.3604 2.648-1.08 0.6374-0.7197 0.957-1.708 0.957-2.965 0-1.26-0.3174-2.249-0.9512-2.965s-1.515-1.074-2.643-1.074zm-12.91 0.01172c-0.7734 0-1.447 0.1647-2.02 0.4941-0.5693 0.3294-1.006 0.7975-1.311 1.406-0.3008 0.6087-0.4512 1.318-0.4512 2.127 0 1.293 0.3128 2.29 0.9394 2.992 0.6302 0.7018 1.523 1.053 2.68 1.053 0.7985 0 1.471-0.1025 2.016-0.3066v-0.7988c-0.7018 0.1969-1.327 0.2949-1.875 0.2949-0.8916 0-1.579-0.2793-2.062-0.8379-0.4798-0.5622-0.7207-1.357-0.7207-2.385 0-0.999 0.2503-1.786 0.748-2.359 0.5013-0.5765 1.182-0.8633 2.045-0.8633 0.5944 1e-6 1.189 0.1387 1.783 0.418l0.3867-0.7832c-0.6159-0.3008-1.335-0.4512-2.158-0.4512zm-87.36 0.1133v7.852h0.9121v-7.041h4.033v7.041h0.9141v-7.852zm90.92 0v7.852h4.377v-0.8164h-3.465v-2.891h3.256v-0.8047h-3.256v-2.529h3.465v-0.8105zm9.346 0.6914c0.8665 0 1.52 0.2744 1.961 0.8223 0.444 0.5443 0.6641 1.344 0.6641 2.4 0 1.067-0.2201 1.876-0.6641 2.424-0.444 0.5479-1.103 0.8203-1.973 0.8203-0.863 0-1.522-0.2725-1.977-0.8203-0.4512-0.5514-0.6758-1.36-0.6758-2.424 0-1.049 0.2246-1.847 0.6758-2.395 0.4548-0.5514 1.118-0.8281 1.988-0.8281zm-90.13 1.166c-0.7878 0-1.416 0.2793-1.885 0.8379-0.4655 0.5586-0.6992 1.313-0.6992 2.262 0 0.9417 0.2507 1.677 0.752 2.207 0.5049 0.5299 1.192 0.7949 2.062 0.7949 0.3975 1e-6 0.7363-0.03092 1.016-0.0918 0.2829-0.05729 0.5814-0.153 0.8965-0.2891v-0.7949c-0.6195 0.265-1.245 0.3965-1.879 0.3965-0.6016 0-1.069-0.179-1.402-0.5371-0.3294-0.3581-0.5036-0.8831-0.5215-1.574h4.057v-0.5625c0-0.7949-0.2168-1.435-0.6465-1.918-0.4297-0.487-1.012-0.7305-1.75-0.7305zm6.65 0c-0.3939 0-0.7445 0.07161-1.049 0.2148-0.3044 0.1432-0.5697 0.375-0.7988 0.6973h-0.04297l-0.125-0.8047h-0.7246v8.529h0.8926v-2.422c0-0.3079-0.02149-0.6348-0.06445-0.9785h0.06445c0.2148 0.2936 0.4779 0.513 0.793 0.6562 0.3187 0.1396 0.6715 0.209 1.055 0.209 0.7663 0 1.363-0.2673 1.793-0.8008 0.4333-0.5371 0.6504-1.289 0.6504-2.256 0-0.9632-0.2126-1.711-0.6387-2.244-0.4225-0.5335-1.024-0.8008-1.805-0.8008zm6.418 0c-0.8773 0-1.555 0.2676-2.031 0.8047-0.4727 0.5371-0.709 1.299-0.709 2.283 0 0.9596 0.2337 1.702 0.6992 2.229 0.4691 0.5228 1.13 0.7852 1.982 0.7852 0.598 0 1.092-0.1025 1.486-0.3066v-0.7891c-0.5156 0.2113-1.019 0.3164-1.51 0.3164-0.5729 0-1.005-0.1934-1.299-0.5801-0.29-0.3867-0.4355-0.9408-0.4355-1.664 0-1.525 0.599-2.289 1.795-2.289 0.179 0 0.3844 0.02832 0.6172 0.08203 0.2327 0.05013 0.4476 0.1146 0.6445 0.1934l0.2734-0.7578c-0.1611-0.08236-0.3831-0.154-0.666-0.2148-0.2829-0.06087-0.5648-0.0918-0.8477-0.0918zm5.221 0c-0.8522 0-1.518 0.2676-1.998 0.8047-0.4798 0.5335-0.7207 1.281-0.7207 2.24 0 0.6195 0.112 1.161 0.334 1.623s0.5371 0.8154 0.9453 1.062c0.4082 0.2471 0.874 0.3711 1.4 0.3711 0.8522 0 1.521-0.2676 2.004-0.8047 0.4834-0.5407 0.7266-1.292 0.7266-2.252 1e-6 -0.9346-0.2454-1.675-0.7324-2.223-0.4834-0.5479-1.135-0.8223-1.959-0.8223zm95.13 0c-0.8522 0-1.518 0.2676-1.998 0.8047-0.4798 0.5335-0.7207 1.281-0.7207 2.24 0 0.6195 0.112 1.161 0.334 1.623 0.222 0.4619 0.5371 0.8154 0.9453 1.062 0.4082 0.2471 0.874 0.3711 1.4 0.3711 0.8522 0 1.52-0.2676 2.004-0.8047 0.4834-0.5407 0.7266-1.292 0.7266-2.252 0-0.9346-0.2435-1.675-0.7305-2.223-0.4834-0.5479-1.137-0.8223-1.961-0.8223zm-81.69 0.01172c-0.3473 0-0.6956 0.0433-1.043 0.1328-0.3438 0.08952-0.6592 0.2135-0.9492 0.3711l0.2734 0.6816c0.6195-0.3008 1.174-0.4512 1.664-0.4512 0.4368 0 0.7542 0.112 0.9512 0.334 0.2005 0.2184 0.3008 0.5576 0.3008 1.02v0.3652l-0.998 0.0332c-1.901 0.05729-2.854 0.6803-2.854 1.869 0 0.555 0.1647 0.9824 0.4941 1.283 0.333 0.3008 0.7913 0.4512 1.375 0.4512 0.4368 0 0.8018-0.06445 1.092-0.1934 0.2936-0.1325 0.5872-0.3831 0.8809-0.752h0.04297l0.1758 0.8379h0.6621v-4.018c0-0.6875-0.1696-1.187-0.5098-1.498-0.3366-0.3115-0.8568-0.4668-1.559-0.4668zm-9.195 0.0957v5.887h0.8926v-2.652h3.297v2.652h0.8926v-5.887h-0.8926v2.465h-3.297v-2.465zm14.05 0c-0.1253 1.772-0.3092 3.095-0.5527 3.965-0.2435 0.8701-0.5706 1.305-0.9824 1.305-0.1003 0-0.1908-0.01172-0.2695-0.0332v0.6621c0.1146 0.04297 0.2695 0.0625 0.4629 0.0625 0.4225 0 0.7689-0.1722 1.041-0.5195 0.2757-0.3473 0.5-0.8962 0.6719-1.645s0.3057-1.758 0.4023-3.033h1.768v5.123h0.9023v-5.887zm5.328 0v5.887h2.654c0.7555 0 1.328-0.153 1.719-0.4609 0.3939-0.3079 0.5898-0.752 0.5898-1.332 0-1.106-0.752-1.66-2.256-1.66h-1.814v-2.434zm6.51 0v5.887h0.8926v-2.652h3.297v2.652h0.8926v-5.887h-0.8926v2.465h-3.297v-2.465zm6.982 0v5.887h2.443c0.7412 0 1.302-0.1504 1.682-0.4512 0.3831-0.3044 0.5742-0.751 0.5742-1.342 0-0.5514-0.1813-0.9665-0.543-1.242-0.3581-0.2793-0.9098-0.418-1.658-0.418h-1.605v-2.434zm5.688 0v5.887h0.8926v-5.887zm2.777 0v5.887h1.111l3.18-5.006-0.0254 0.6992-0.0176 0.707v3.6h0.834v-5.887h-1.113l-3.184 5.018 0.0156-0.3066 0.0371-0.9785v-3.732zm41.83 0c-0.1253 1.772-0.3092 3.095-0.5527 3.965s-0.5706 1.305-0.9824 1.305c-0.1003 0-0.1908-0.01172-0.2695-0.0332v0.6621c0.1146 0.04297 0.2695 0.0625 0.4629 0.0625 0.4225 0 0.7689-0.1722 1.041-0.5195 0.2757-0.3473 0.5-0.8962 0.6719-1.645 0.1719-0.7484 0.3057-1.758 0.4024-3.033h1.768v5.123h0.9024v-5.887zm11.97 0v5.887h0.8926v-5.123h2.652v-0.7637zm-117.7 0.6387c0.4655 0 0.8216 0.1504 1.072 0.4512 0.2507 0.2972 0.377 0.7269 0.377 1.289h-3.078c0.05013-0.5443 0.2148-0.9694 0.4941-1.277 0.2829-0.3079 0.6621-0.4629 1.135-0.4629zm6.531 0.01172c0.5228 0 0.9264 0.196 1.213 0.5898 0.29 0.3903 0.4355 0.9534 0.4355 1.688 0 0.7233-0.1455 1.289-0.4355 1.701-0.2865 0.4118-0.6829 0.6191-1.191 0.6191-0.6087 0-1.052-0.1768-1.328-0.5312-0.2757-0.3581-0.4121-0.9521-0.4121-1.779v-0.1992c0.0072-0.7269 0.1436-1.257 0.4121-1.59 0.2686-0.333 0.7051-0.498 1.307-0.498zm11.74 0c0.5908 0 1.037 0.1956 1.338 0.5859 0.3044 0.3867 0.457 0.9528 0.457 1.701 0 0.7555-0.1527 1.331-0.457 1.725-0.3008 0.3903-0.7425 0.5859-1.326 0.5859s-1.027-0.1979-1.328-0.5918-0.4512-0.9668-0.4512-1.719c0-0.7591 0.1481-1.33 0.4453-1.713 0.2972-0.3831 0.7386-0.5742 1.322-0.5742zm95.13 0c0.5908 0 1.037 0.1956 1.338 0.5859 0.3044 0.3867 0.4551 0.9528 0.4551 1.701 0 0.7555-0.1507 1.331-0.4551 1.725-0.3008 0.3903-0.7425 0.5859-1.326 0.5859s-1.027-0.1979-1.328-0.5918-0.4512-0.9668-0.4512-1.719c0-0.7591 0.1501-1.33 0.4473-1.713s0.7367-0.5742 1.32-0.5742zm-12.62 0.5156c0.9919 0 1.488 0.6637 1.488 1.992 0 1.393-0.5466 2.09-1.639 2.09-0.6159 0-1.072-0.2458-1.369-0.7363-0.2972-0.4941-0.4453-1.213-0.4453-2.154 0.1146-0.1969 0.2748-0.388 0.4824-0.5742 0.2113-0.1862 0.4427-0.3343 0.6934-0.4453 0.2542-0.1146 0.5169-0.1719 0.7891-0.1719zm-67.87 1.826v0.5312c0 0.5479-0.1579 0.973-0.4766 1.277-0.3151 0.3044-0.7516 0.457-1.307 0.457-0.3509 0-0.6234-0.08366-0.8203-0.252-0.1934-0.1683-0.291-0.4141-0.291-0.7363 0-0.4118 0.1553-0.7129 0.4668-0.9062 0.3151-0.1969 0.8281-0.3089 1.537-0.334zm9.9 0.209h1.691c0.5299 0 0.9095 0.0765 1.139 0.2305 0.2327 0.1504 0.3477 0.389 0.3477 0.7148 0 0.333-0.1243 0.5814-0.375 0.7461s-0.6113 0.248-1.084 0.248h-1.719zm13.49 0h1.48c0.5264 0 0.9007 0.07422 1.119 0.2246 0.2184 0.1504 0.3262 0.3913 0.3262 0.7207 0 0.6624-0.4727 0.9941-1.418 0.9941h-1.508z" fill="#2e2e2e" opacity=".7"/>
 <path d="m0 0v7.59h23.14v-7.59zm0 12.93v22.07h11.28c4.762 0 8.407-0.9786 10.93-2.934 2.526-1.955 3.787-4.768 3.787-8.438 0-3.576-1.282-6.252-3.848-8.031-2.565-1.78-6.307-2.67-11.23-2.67h-1.371zm9.549 7.158h1.227c1.908-1e-6 3.322 0.3022 4.244 0.9082 0.922 0.607 1.383 1.549 1.383 2.826s-0.4328 2.241-1.299 2.896c-0.866 0.654-2.293 0.9805-4.281 0.9805h-1.273z" fill="#2e3755"/>
</svg>
